<svg version="1.1" xmlns="http://www.w3.org/2000/svg" viewBox="0 0 212.453125 198.96484375" width="424.90625" height="397.9296875">
  <!-- svg-source:excalidraw -->
  
  <defs>
    <style>
      @font-face {
        font-family: "Virgil";
        src: url("https://excalidraw.com/Virgil.woff2");
      }
      @font-face {
        font-family: "Cascadia";
        src: url("https://excalidraw.com/Cascadia.woff2");
      }
    </style>
  </defs>
  <rect x="0" y="0" width="212.453125" height="198.96484375" fill="#ffffff"></rect><g stroke-linecap="round" transform="translate(10 10) rotate(0 96.2265625 89.482421875)"><path d="M156.99 19.59 C167.14 25.95, 176.53 39.21, 182.09 49.74 C187.66 60.26, 189.6 70.82, 190.38 82.73 C191.16 94.64, 191.17 109.45, 186.78 121.19 C182.4 132.93, 172.79 144.98, 164.1 153.19 C155.4 161.39, 146.06 165.9, 134.62 170.39 C123.18 174.89, 108.65 180.02, 95.44 180.14 C82.22 180.26, 67.31 176.34, 55.33 171.12 C43.35 165.9, 32.01 157.26, 23.57 148.81 C15.13 140.36, 8.71 131.63, 4.69 120.41 C0.67 109.2, -1.78 93.52, -0.56 81.51 C0.67 69.5, 5.97 58.59, 12.05 48.36 C18.12 38.14, 26.29 27.68, 35.88 20.16 C45.47 12.64, 57.65 6.34, 69.59 3.24 C81.54 0.13, 95.04 -0.15, 107.54 1.51 C120.05 3.18, 133.73 7.6, 144.6 13.22 C155.48 18.85, 166.84 28.84, 172.78 35.26 C178.73 41.69, 181.35 50.76, 180.28 51.77 M134.86 9.05 C146.49 12.22, 159.46 18.14, 167.92 26.65 C176.39 35.16, 181.4 48.77, 185.65 60.11 C189.89 71.45, 193.84 83.24, 193.39 94.69 C192.95 106.14, 188.77 117.96, 182.98 128.8 C177.18 139.64, 168.55 151.48, 158.63 159.73 C148.7 167.98, 136.46 175.2, 123.44 178.32 C110.42 181.43, 92.95 180.95, 80.51 178.41 C68.06 175.87, 59.56 169.25, 48.75 163.06 C37.94 156.87, 23.61 150.21, 15.65 141.28 C7.7 132.34, 2.97 121.1, 1.04 109.45 C-0.9 97.79, 0.97 83.43, 4.06 71.36 C7.16 59.29, 12.62 46.85, 19.61 37.03 C26.61 27.22, 35.24 18.9, 46.03 12.46 C56.83 6.02, 71.56 -0.27, 84.36 -1.61 C97.17 -2.95, 114.6 3.06, 122.86 4.42 C131.12 5.77, 131.94 6.13, 133.9 6.52 C135.87 6.91, 134.92 5.26, 134.65 6.76" stroke="none" stroke-width="0" fill="#fa5252"></path><path d="M39.16 15.42 C48.69 7.55, 64.48 5.02, 77.06 2.51 C89.64 0.01, 102.48 -1.71, 114.63 0.4 C126.79 2.52, 139.62 8.54, 149.99 15.2 C160.35 21.86, 170.28 30.52, 176.82 40.35 C183.37 50.18, 187.34 62.27, 189.27 74.18 C191.2 86.1, 191.54 100.31, 188.4 111.83 C185.27 123.34, 177.76 133.65, 170.45 143.29 C163.13 152.93, 155.6 164.02, 144.53 169.67 C133.46 175.32, 116.86 176.62, 104.04 177.18 C91.22 177.73, 79.29 176.73, 67.62 172.99 C55.94 169.26, 43.48 162.65, 33.98 154.75 C24.49 146.85, 16.18 136.24, 10.67 125.6 C5.15 114.95, 1.88 102.39, 0.91 90.89 C-0.05 79.39, 0.5 67.5, 4.87 56.62 C9.24 45.74, 17.08 33.89, 27.14 25.61 C37.21 17.32, 55.07 10.76, 65.27 6.88 C75.48 3, 87.78 1.45, 88.36 2.31 M147.82 11.58 C158.81 16.18, 167.33 27.07, 174.51 37.38 C181.69 47.69, 188.1 61.91, 190.93 73.44 C193.75 84.98, 194.07 95.51, 191.45 106.6 C188.82 117.69, 182.46 129.96, 175.19 140 C167.92 150.04, 159.04 160.68, 147.81 166.83 C136.58 172.99, 120.51 175.05, 107.81 176.94 C95.11 178.84, 83.7 180.93, 71.6 178.2 C59.49 175.47, 45.29 168.81, 35.2 160.54 C25.1 152.28, 16.61 139.54, 11.03 128.63 C5.45 117.73, 2.35 106.79, 1.72 95.1 C1.1 83.41, 3.64 70, 7.26 58.5 C10.88 46.99, 15.35 34.24, 23.45 26.08 C31.55 17.91, 43.92 13.89, 55.88 9.52 C67.85 5.15, 82.56 0.51, 95.25 -0.16 C107.93 -0.83, 122.98 3.23, 131.98 5.51 C140.98 7.79, 147.29 11.99, 149.25 13.52 C151.21 15.06, 144.91 13.1, 143.75 14.72" stroke="#c92a2a" stroke-width="4" fill="none"></path></g><g transform="translate(46.65625 49.1875) rotate(0 64 59)"><text x="0" y="83" font-family="Virgil, Segoe UI Emoji" font-size="93.69999999999996px" fill="#ffffff" text-anchor="start" style="white-space: pre;" direction="ltr">30</text></g></svg>