<svg version="1.1" xmlns="http://www.w3.org/2000/svg" viewBox="0 0 646.8066260140156 647.7421874999999" width="1293.6132520280312" height="1295.4843749999998">
  <!-- svg-source:excalidraw -->
  
  <defs>
    <style>
      @font-face {
        font-family: "Virgil";
        src: url("https://excalidraw.com/Virgil.woff2");
      }
      @font-face {
        font-family: "Cascadia";
        src: url("https://excalidraw.com/Cascadia.woff2");
      }
    </style>
  </defs>
  <rect x="0" y="0" width="646.8066260140156" height="647.7421874999999" fill="#ffffff"></rect><g stroke-linecap="round" transform="translate(10 10) rotate(0 311.28515625 313.87109374999994)"><path d="M0.33 -0.14 C145.62 1.26, 291.56 1.2, 622.6 0.77 M0.04 0.05 C181.71 1.37, 363.12 1.77, 622.45 0.35 M623.05 -0.38 C624.6 155.14, 624.33 311.89, 622.41 627.44 M622.97 -0.09 C625.03 167.08, 624.99 334.31, 622.49 628 M622.23 627.17 C459.9 625.73, 296.64 626.12, 0.33 628.53 M622.56 627.87 C492.61 629.7, 363.76 630.27, 0.11 627.79 M-0.73 628.44 C2.72 444, 1.57 261.98, 0.47 -0.76 M-0.09 628.02 C-2.37 401.86, -2.37 175.89, -0.07 -0.2" stroke="#000000" stroke-width="1" fill="none"></path></g><g stroke-linecap="round" transform="translate(228.90876116071445 30.708426339285666) rotate(0 96.2265625 89.482421875)"><path d="M168.88 28.87 C178.32 36.51, 183.23 48.88, 187.15 60.31 C191.07 71.74, 193.46 85.7, 192.4 97.45 C191.34 109.21, 186.77 120.27, 180.78 130.83 C174.78 141.4, 166.21 153.01, 156.43 160.83 C146.65 168.66, 134.62 174.95, 122.1 177.76 C109.58 180.58, 94.27 179.65, 81.3 177.72 C68.33 175.79, 54.86 172.27, 44.28 166.18 C33.7 160.08, 24.68 150.85, 17.81 141.16 C10.95 131.47, 5.75 119.9, 3.09 108.04 C0.42 96.17, -0.78 81.62, 1.82 69.96 C4.43 58.31, 11.63 47.47, 18.71 38.11 C25.78 28.75, 33.69 19.69, 44.29 13.79 C54.88 7.89, 69.46 4.78, 82.27 2.71 C95.09 0.65, 108.52 -1.48, 121.17 1.4 C133.82 4.28, 147.44 11.19, 158.17 19.99 C168.9 28.79, 179.95 44.52, 185.56 54.22 C191.18 63.92, 193.88 77.85, 191.88 78.18 M70.07 5.6 C81.67 0.8, 97.72 -0.75, 110.62 0.27 C123.52 1.3, 136.99 5.87, 147.45 11.74 C157.91 17.62, 166.49 26.2, 173.38 35.53 C180.26 44.86, 186.16 56.31, 188.77 67.73 C191.38 79.14, 191.21 92.16, 189.03 104 C186.86 115.84, 182.35 128.69, 175.71 138.79 C169.07 148.89, 159.65 158.19, 149.2 164.59 C138.76 171, 125.94 175.53, 113.05 177.22 C100.16 178.91, 84.86 177.24, 71.85 174.74 C58.84 172.24, 44.58 169.35, 34.97 162.2 C25.35 155.05, 19.44 142.7, 14.16 131.84 C8.88 120.97, 4.59 109.03, 3.3 97.01 C2 84.99, 2.95 70.55, 6.4 59.71 C9.85 48.86, 15.4 40.38, 23.98 31.96 C32.55 23.53, 50.48 14.31, 57.86 9.16 C65.24 4.01, 66.57 1.8, 68.25 1.06 C69.93 0.32, 66.92 3.05, 67.93 4.73" stroke="none" stroke-width="0" fill="#fa5252"></path><path d="M129.74 3.92 C141.5 6.59, 155.35 14.8, 164.33 23.32 C173.3 31.84, 178.7 43.74, 183.62 55.03 C188.53 66.33, 193.72 79.43, 193.81 91.08 C193.91 102.74, 189.46 114.19, 184.18 124.95 C178.9 135.71, 171.52 147.17, 162.13 155.67 C152.75 164.16, 140.12 171.88, 127.87 175.93 C115.62 179.98, 101.16 181.42, 88.63 179.97 C76.1 178.52, 63.6 172.97, 52.68 167.25 C41.76 161.53, 31.27 154.47, 23.11 145.65 C14.95 136.84, 7.4 125.58, 3.72 114.38 C0.04 103.17, -0.8 90.34, 1.04 78.41 C2.88 66.48, 8.18 53.4, 14.75 42.78 C21.33 32.17, 30.11 21.55, 40.51 14.73 C50.9 7.9, 64.84 3.88, 77.12 1.85 C89.41 -0.18, 103.29 0.97, 114.2 2.56 C125.11 4.15, 136.4 8.9, 142.59 11.38 C148.77 13.85, 152.2 16.28, 151.32 17.41 M100.95 2 C113.21 1.46, 124.01 6.87, 135.2 11.32 C146.39 15.78, 159.52 20.32, 168.08 28.74 C176.64 37.15, 182.42 49.92, 186.57 61.81 C190.72 73.69, 194.05 88.33, 192.98 100.05 C191.91 111.77, 186.6 121.61, 180.14 132.1 C173.68 142.6, 164.06 155.45, 154.21 163.03 C144.36 170.6, 133.72 175.52, 121.05 177.53 C108.38 179.54, 91.27 177.57, 78.2 175.08 C65.13 172.59, 52.6 168.3, 42.64 162.59 C32.67 156.87, 25.46 149.85, 18.39 140.79 C11.33 131.73, 3.04 119.88, 0.26 108.21 C-2.52 96.55, -1.11 82.28, 1.71 70.78 C4.54 59.28, 10.01 48.62, 17.21 39.23 C24.4 29.84, 33.46 20.5, 44.87 14.42 C56.29 8.35, 76.37 5.48, 85.67 2.79 C94.98 0.1, 98.83 -1.86, 100.72 -1.72 C102.62 -1.58, 96.85 1.5, 97.04 3.65" stroke="#c92a2a" stroke-width="4" fill="none"></path></g><g transform="translate(265.56501116071445 69.89592633928567) rotate(0 64 59)"><text x="0" y="83" font-family="Virgil, Segoe UI Emoji" font-size="93.69999999999996px" fill="#ffffff" text-anchor="start" style="white-space: pre;" direction="ltr">30</text></g><g stroke-linecap="round" transform="translate(48.89760044642878 244.5616629464286) rotate(0 42.17717633928572 42.17717633928575)"><path d="M36.53 1.17 C44.06 -0.15, 55.75 1.61, 62.95 5.16 C70.14 8.71, 76.31 15.5, 79.7 22.48 C83.09 29.46, 84.42 39.13, 83.29 47.01 C82.16 54.89, 78.05 63.67, 72.92 69.76 C67.8 75.85, 60.22 81.59, 52.54 83.56 C44.86 85.52, 34.6 84.41, 26.86 81.55 C19.13 78.69, 10.55 73.06, 6.11 66.39 C1.66 59.72, -0.07 49.79, 0.19 41.52 C0.46 33.24, 3 23.21, 7.71 16.74 C12.42 10.27, 22.78 5.51, 28.45 2.69 C34.13 -0.13, 38.82 0.03, 41.73 -0.17 C44.64 -0.36, 46 0.63, 45.91 1.5 M25.75 4.14 C32.6 0.92, 44.4 0.16, 52.32 1.77 C60.23 3.38, 67.99 8.01, 73.24 13.78 C78.49 19.56, 82.87 28.59, 83.79 36.43 C84.72 44.26, 82.38 53.38, 78.79 60.81 C75.19 68.24, 69.18 77.08, 62.22 80.99 C55.26 84.91, 45.05 85.51, 37.05 84.3 C29.05 83.1, 20.42 79.01, 14.24 73.74 C8.06 68.46, 1.66 60.68, -0.04 52.66 C-1.75 44.65, 0.74 33.28, 4 25.64 C7.26 18.01, 15.59 10.48, 19.52 6.83 C23.45 3.17, 26.33 4.12, 27.59 3.7 C28.85 3.28, 27.12 3.72, 27.09 4.32" stroke="none" stroke-width="0" fill="#868e96"></path><path d="M56.82 2.99 C64.12 5.22, 72.48 11.39, 77.21 18.09 C81.94 24.79, 85.18 35.11, 85.22 43.18 C85.26 51.26, 82.02 60.07, 77.44 66.53 C72.87 73, 65.37 79.14, 57.79 81.98 C50.21 84.83, 39.86 85.73, 31.96 83.59 C24.05 81.46, 15.62 75.44, 10.34 69.17 C5.05 62.9, 1.2 53.73, 0.25 45.96 C-0.7 38.19, 0.64 29.63, 4.65 22.56 C8.67 15.48, 17.11 7.31, 24.32 3.51 C31.52 -0.3, 40.63 -1.14, 47.88 -0.28 C55.12 0.57, 63.22 5.85, 67.78 8.66 C72.33 11.47, 75.59 15.99, 75.2 16.59 M28.06 3.14 C34.86 0.19, 44.81 0.36, 52.48 2.42 C60.16 4.49, 69.03 9.87, 74.13 15.53 C79.23 21.19, 81.94 28.51, 83.08 36.39 C84.22 44.27, 84.71 55.45, 80.96 62.79 C77.21 70.14, 67.78 77.04, 60.56 80.46 C53.34 83.88, 45.24 84.24, 37.65 83.33 C30.06 82.42, 21.35 80.48, 15.03 75 C8.71 69.53, 1.82 58.49, -0.28 50.48 C-2.38 42.47, -0.99 34.15, 2.41 26.94 C5.82 19.73, 16.24 11.27, 20.15 7.2 C24.07 3.13, 24.54 2.95, 25.9 2.52 C27.26 2.08, 27.86 3.91, 28.33 4.6" stroke="#000000" stroke-width="1" fill="none"></path></g><g stroke-linecap="round" transform="translate(59.33698976179505 254.96990792673415) rotate(0 31.973779164675932 31.97377916467596)"><path d="M29.84 0.83 C36.32 -0.11, 44.65 1.48, 50.33 5.58 C56.01 9.68, 62.18 18.67, 63.94 25.43 C65.69 32.2, 64.09 40.33, 60.85 46.18 C57.6 52.03, 50.87 57.86, 44.46 60.53 C38.06 63.21, 29.04 63.85, 22.4 62.21 C15.77 60.58, 8.32 56.24, 4.67 50.7 C1.01 45.16, -0.42 36.06, 0.46 28.96 C1.33 21.87, 4.9 12.9, 9.92 8.12 C14.94 3.34, 26.1 1.63, 30.57 0.27 C35.03 -1.09, 34.85 -0.43, 36.72 -0.04 C38.59 0.36, 41.85 1.95, 41.79 2.62 M28.86 1.39 C34.94 0.35, 43.43 2.66, 49.14 6.14 C54.84 9.63, 60.88 15.73, 63.09 22.28 C65.29 28.84, 65.16 39.12, 62.36 45.47 C59.56 51.81, 52.74 57.48, 46.27 60.35 C39.8 63.22, 30.4 64.4, 23.56 62.67 C16.72 60.93, 9.32 55.34, 5.22 49.94 C1.12 44.54, -1.91 36.92, -1.04 30.27 C-0.18 23.62, 5.39 14.97, 10.4 10.02 C15.4 5.06, 25.83 2.4, 29.01 0.56 C32.19 -1.28, 29.27 -1.21, 29.46 -1.01 C29.65 -0.81, 30.33 0.94, 30.16 1.77" stroke="none" stroke-width="0" fill="white"></path><path d="M39.4 1.1 C45.9 2.35, 53.06 8.02, 57.28 13.54 C61.51 19.06, 65.03 27.37, 64.76 34.22 C64.49 41.07, 60.4 49.68, 55.66 54.64 C50.93 59.6, 43.05 63.26, 36.34 64 C29.62 64.73, 21.27 62.76, 15.37 59.03 C9.47 55.31, 3.2 48.27, 0.93 41.65 C-1.34 35.03, -1.05 25.46, 1.74 19.3 C4.54 13.13, 11.72 7.81, 17.72 4.66 C23.73 1.51, 32.88 0.36, 37.76 0.39 C42.65 0.42, 44.15 3.09, 47.03 4.84 C49.92 6.58, 55.23 10.35, 55.09 10.84 M41.86 3.08 C48.35 4.79, 55.95 10.5, 59.78 16.27 C63.6 22.05, 65.7 31.23, 64.79 37.73 C63.88 44.23, 59.8 50.67, 54.3 55.27 C48.81 59.88, 38.73 65.31, 31.82 65.37 C24.91 65.43, 17.89 60.05, 12.83 55.62 C7.78 51.18, 3.07 45.12, 1.48 38.77 C-0.1 32.42, -0.1 23.85, 3.3 17.51 C6.7 11.17, 15.63 3.45, 21.88 0.73 C28.14 -1.99, 37.34 0.78, 40.83 1.21 C44.33 1.64, 42.57 3.27, 42.85 3.32 C43.13 3.37, 42.8 1.07, 42.53 1.53" stroke="#000000" stroke-width="1" fill="none"></path></g><g stroke-linecap="round"><g transform="translate(90.44336720240665 289.59242840150443) rotate(0 8.214475022269653 -5.841508606239671)"><path d="M0.87 0.54 C3.07 -1.66, 11.84 -10.21, 14.26 -12.23 M-0.14 -0.22 C2.36 -1.73, 14.08 -8.61, 16.56 -10.86" stroke="#000000" stroke-width="1" fill="none"></path></g></g><g stroke-linecap="round"><g transform="translate(91.54641257709784 260.9273906601241) rotate(0 -0.20557773817182579 12.870285427755704)"><path d="M0.54 -0.77 C0.42 3.5, 0.21 22.05, 0.28 26.51 M-0.63 1.44 C-1.03 5.26, -1.01 20.27, -0.84 24.56" stroke="#000000" stroke-width="1" fill="none"></path></g></g><g stroke-linecap="round"><g transform="translate(91.34661487129472 250.46236644052595) rotate(0 0.1192009969140031 4.662804402803374)"><path d="M-0.77 -0.33 C-0.91 1.39, -0.01 8.9, 0.04 10.88 M1.02 -1.55 C0.68 -0.25, -0.34 7.05, -0.74 8.94" stroke="#000000" stroke-width="1" fill="none"></path></g></g><g stroke-linecap="round"><g transform="translate(108.40046790937038 255.92827326119698) rotate(0 -1.8725243564998095 4.9155331427101885)"><path d="M-0.33 0.32 C-1.2 1.94, -4.06 7.32, -4.67 8.97 M1.69 -0.56 C0.65 1.31, -4.46 8.9, -5.44 10.39" stroke="#000000" stroke-width="1" fill="none"></path></g></g><g stroke-linecap="round"><g transform="translate(120.21687415937038 267.71212742786355) rotate(0 -3.9845074407769516 2.826756028354481)"><path d="M-0.54 -0.31 C-1.93 0.72, -7.19 4.63, -8.92 5.64 M1.37 -1.51 C-0.03 -0.24, -7.69 5.74, -9.34 7.17" stroke="#000000" stroke-width="1" fill="none"></path></g></g><g stroke-linecap="round"><g transform="translate(127.81670500976611 287.8770741579673) rotate(0 -6.302984351825501 0.8128665107639677)"><path d="M0.32 0.34 C-1.53 0.76, -10.04 1.88, -11.86 2.15 M-0.98 -0.52 C-2.93 -0.39, -11.28 0.48, -12.92 0.57" stroke="#000000" stroke-width="1" fill="none"></path></g></g><g stroke-linecap="round"><g transform="translate(97.0767568103413 318.2617345369699) rotate(96.56194880539789 -5.333453700274788 0.37609245273864644)"><path d="M0.34 -0.22 C-1.37 0.09, -8.75 1.87, -10.61 2.13 M-0.94 -1.37 C-2.69 -1.42, -9.31 -0.15, -11.01 0.54" stroke="#000000" stroke-width="1" fill="none"></path></g></g><g stroke-linecap="round"><g transform="translate(112.2752811493466 315.2823613915215) rotate(51.61484881446467 -5.6293726945040135 1.1118133924970266)"><path d="M-0.22 1.04 C-2.04 1.31, -8.76 1.74, -10.63 1.95 M-1.79 0.54 C-3.71 0.45, -9.33 0.27, -11.04 0.27" stroke="#000000" stroke-width="1" fill="none"></path></g></g><g stroke-linecap="round"><g transform="translate(125.30984145171351 303.80488270789556) rotate(45.34826750140338 -5.13514313641241 0.2940530874053877)"><path d="M1.04 1.02 C-0.82 1.27, -8.89 1.27, -10.8 1.33 M0.13 0.51 C-1.85 0.4, -9.52 -1.07, -11.31 -0.68" stroke="#000000" stroke-width="1" fill="none"></path></g></g><g stroke-linecap="round"><g transform="translate(66.95911067526822 289.354904268612) rotate(8.654810164249195 -5.620144496273781 1.267904319778296)"><path d="M1.02 0.84 C-0.85 1.05, -9.36 2.19, -11.43 2.3 M0.09 0.24 C-1.9 0.67, -10.25 0.95, -12.26 0.8" stroke="#000000" stroke-width="1" fill="none"></path></g></g><g stroke-linecap="round"><g transform="translate(69.41209816203241 276.21144114077106) rotate(26.23696769161766 -4.970786363214756 0.34617138299736894)"><path d="M0.84 0.22 C-1.07 0.28, -8.44 1.14, -10.46 1.4 M-0.17 -0.71 C-2.24 -0.5, -8.84 -0.66, -10.78 -0.57" stroke="#000000" stroke-width="1" fill="none"></path></g></g><g stroke-linecap="round"><g transform="translate(74.7264782637692 263.32458054917976) rotate(35.317042949815914 -5.964345472466732 0.4992546074101085)"><path d="M0.22 1.19 C-1.84 1.29, -9.49 1.48, -11.35 1.49 M-1.12 0.76 C-3.41 0.43, -10.44 -0.74, -12.15 -0.44" stroke="#000000" stroke-width="1" fill="none"></path></g></g><g stroke-linecap="round"><g transform="translate(70.80018676142936 303.1459390812305) rotate(329.11051574659837 -5.416108173162286 0.5927240444080155)"><path d="M1.19 0.29 C-0.83 0.56, -9.15 1.78, -11.27 1.8 M0.35 -0.6 C-1.87 -0.7, -9.92 -0.29, -12.02 0.04" stroke="#000000" stroke-width="1" fill="none"></path></g></g><g stroke-linecap="round"><g transform="translate(78.21224448404007 317.2097478489975) rotate(329.11051574659837 -1.8692680980549312 1.0723683745346761)"><path d="M0.29 0.38 C-0.32 0.35, -2.6 0.93, -3.45 1.02 M-1.01 -0.47 C-1.74 0.22, -3.21 2.16, -4.03 2.62" stroke="#000000" stroke-width="1" fill="none"></path></g></g><g transform="translate(157.37177573413123 356.5142825573654) rotate(0 107.5 25)"><text x="0" y="18" font-family="Virgil, Segoe UI Emoji" font-size="20px" fill="#343a40" text-anchor="start" style="white-space: pre;" direction="ltr">Pałac Kasztanowy</text><text x="0" y="43" font-family="Virgil, Segoe UI Emoji" font-size="20px" fill="#343a40" text-anchor="start" style="white-space: pre;" direction="ltr">ul. Lipowa 15, Swadzim</text></g><g stroke-linecap="round" transform="translate(494.3953636633521 312.3095231073138) rotate(0 56.280714481512746 51.80102468759145)"><path d="M53.42 0.31 C62.23 -0.94, 73.53 1.58, 82 5.7 C90.47 9.81, 99.02 17.29, 104.24 25 C109.46 32.71, 113.29 43.29, 113.31 51.93 C113.33 60.58, 109.12 69.47, 104.35 76.86 C99.58 84.25, 92.94 91.69, 84.67 96.27 C76.39 100.86, 64.49 104.42, 54.72 104.35 C44.95 104.29, 34.08 100.57, 26.05 95.89 C18.01 91.2, 10.91 84.19, 6.52 76.24 C2.13 68.29, -0.69 56.93, -0.31 48.18 C0.07 39.43, 3.45 30.85, 8.8 23.75 C14.14 16.65, 22.84 9.47, 31.77 5.57 C40.7 1.66, 55.83 0.7, 62.36 0.33 C68.89 -0.03, 71.13 2.41, 70.96 3.38 M78.67 5.05 C87.58 7.68, 96.94 13.61, 102.73 20.83 C108.52 28.05, 112.63 39.64, 113.41 48.38 C114.2 57.11, 111.58 65.68, 107.44 73.26 C103.3 80.83, 96.43 88.58, 88.59 93.82 C80.76 99.07, 70.21 104.05, 60.43 104.7 C50.66 105.34, 38.77 101.84, 29.92 97.7 C21.08 93.57, 12.3 87.61, 7.37 79.91 C2.43 72.21, 0.2 60.71, 0.28 51.5 C0.37 42.28, 3.17 32.25, 7.87 24.62 C12.57 17, 20.4 10.04, 28.49 5.73 C36.58 1.42, 48.09 -1.21, 56.43 -1.23 C64.78 -1.25, 75.02 4.65, 78.56 5.59 C82.1 6.54, 77.83 3.74, 77.68 4.45" stroke="#000000" stroke-width="2" fill="none"></path></g><g stroke-linecap="round"><g transform="translate(544.9650768677964 415.18761347546535) rotate(0 -2.073587504199736 62.3150633815074)"><path d="M0.74 -0.12 C0.15 20.86, -3.43 104.86, -4.49 125.86 M-0.33 -1.23 C-0.9 19.36, -3.89 102.44, -4.89 123.87" stroke="#000000" stroke-width="2" fill="none"></path></g></g><g stroke-linecap="round"><g transform="translate(539.4304133785622 544.9130859103675) rotate(0 24.16795854663701 39.304746726225346)"><path d="M-0.12 1.04 C8.21 13.67, 41.62 64.07, 49.98 76.56 M-1.64 0.54 C6.55 13.31, 40.66 65.34, 49.17 78.07" stroke="#000000" stroke-width="2" fill="none"></path></g></g><g stroke-linecap="round"><g transform="translate(532.5756558277802 538.6034814577683) rotate(0 -21.256824508853242 35.39937340599715)"><path d="M1.04 0.26 C-6.18 12.19, -35.21 59.69, -42.58 71.45 M0.12 -0.65 C-7.32 10.91, -36.15 57.38, -43.55 69.48" stroke="#000000" stroke-width="2" fill="none"></path></g></g><g stroke-linecap="round"><g transform="translate(496.60109295919335 439.1560365777874) rotate(0 23.761491704567163 22.903493153668478)"><path d="M0.26 -0.04 C8.38 7.41, 40.64 37.99, 48.59 45.71 M-1.06 -1.11 C6.93 7.01, 39.78 38.79, 47.79 46.91" stroke="#000000" stroke-width="2" fill="none"></path></g></g><g stroke-linecap="round"><g transform="translate(548.9134920183103 484.9328914365392) rotate(0 34.90483275200461 -19.65232166814451)"><path d="M-0.04 0.29 C11.28 -6.35, 57.35 -33.06, 68.96 -39.59 M-1.52 -0.6 C10.1 -7.09, 59.61 -32.1, 71.33 -38.24" stroke="#000000" stroke-width="2" fill="none"></path></g></g><g stroke-linecap="round"><g transform="translate(475.42366441177364 321.5358830974641) rotate(0 80.18269472238757 16.876636684027062)"><path d="M0.29 -0.64 C27.14 4.84, 134.42 27.13, 161.38 32.87 M-1.02 1.63 C25.63 7.33, 133.18 29.34, 160.26 34.4" stroke="#000000" stroke-width="2" fill="none"></path></g></g><g stroke-linecap="round" transform="translate(527.8228172433537 217.02342496756756) rotate(10.74366233694554 41.68516222308551 58.588457843459565)"><path d="M0.08 -1.57 L81.4 0.91 L83.96 116.35 L0.24 115.62" stroke="none" stroke-width="0" fill="#fff"></path><path d="M-0.57 -0.05 C25.28 1.96, 51.22 -1.03, 81.9 1.42 M-0.48 0.12 C19.92 -0.03, 39.04 -1.28, 82.56 0.9 M83.45 0.59 C85.23 29.42, 85.46 62.05, 82.23 116.55 M82.83 0.71 C84.59 33.65, 83.2 67.47, 82.61 118.07 M82.13 118.57 C52.28 115.84, 20.97 115.39, -0.17 115.89 M84.19 116.66 C63.73 117.67, 45.74 116.17, -0.49 117.02 M1.5 118.94 C1.48 88.65, -1.62 60.78, -0.79 -0.33 M0.41 116.21 C0.8 92.69, 0.15 66.04, 0.53 -0.16" stroke="#000000" stroke-width="2" fill="none"></path></g><g stroke-linecap="round"><g transform="translate(549.8960758258256 384.9479875470993) rotate(0 1.183777092979085 11.999011705948647)" fill-rule="evenodd"><path d="M1.17 -0.78 L32.86 14.04 L45.69 15.78 L56.98 14.84 L70.74 4.06 L65.76 22.77 L61.41 24.5 L58.52 26.33 L41.98 28.65 L-0.54 16.77 L-34.1 24.18 L-41.66 20.89 L-49.82 15.05 L-58.16 7.02 L-67.21 -6.25 L-50.8 8.51 L-43.03 8.57 L-30.44 9.75 L-1.63 -0.98" stroke="none" stroke-width="0" fill="#000" fill-rule="evenodd"></path><path d="M-0.34 -0.03 C6.49 2.8, 31.47 14.14, 41.25 16.32 C51.03 18.5, 53.74 14.76, 58.35 13.04 C62.96 11.32, 68.65 3.92, 68.93 5.99 C69.21 8.07, 64.65 22.07, 60.02 25.49 C55.38 28.92, 51.16 27.97, 41.11 26.53 C31.07 25.1, 13.46 17.69, -0.27 16.9 C-14.01 16.11, -30.26 25.55, -41.31 21.81 C-52.36 18.06, -66.62 -3.47, -66.56 -5.57 C-66.5 -7.66, -52.14 8.27, -40.93 9.22 C-29.72 10.16, -6.13 1.58, 0.7 0.1 M1.68 -1.09 C8.35 1.47, 31.06 12.18, 40.47 14.68 C49.88 17.17, 53.43 15.69, 58.14 13.89 C62.84 12.09, 68.1 1.92, 68.71 3.88 C69.32 5.85, 66.7 21.5, 61.81 25.67 C56.91 29.83, 49.57 30.52, 39.35 28.85 C29.12 27.19, 13.99 16.96, 0.44 15.68 C-13.11 14.41, -31.05 24.46, -41.96 21.22 C-52.86 17.97, -64.76 -1.68, -64.98 -3.8 C-65.19 -5.92, -54.32 7.67, -43.26 8.5 C-32.2 9.32, -5.6 2.54, 1.39 1.14" stroke="#000000" stroke-width="1" fill="none"></path></g></g><g stroke-linecap="round" transform="translate(506.6064909634001 344.2141060307996) rotate(0 18.437958516690344 14.682347994054851)"><path d="M24.5 1.75 C27.83 2.74, 31.9 4.79, 34.03 7.36 C36.16 9.93, 37.93 14, 37.26 17.17 C36.59 20.34, 33.12 24.44, 29.99 26.4 C26.87 28.37, 22.59 29.22, 18.51 28.96 C14.43 28.7, 8.44 26.94, 5.54 24.84 C2.64 22.75, 1.46 19.35, 1.09 16.39 C0.72 13.43, 1.4 9.62, 3.33 7.06 C5.26 4.51, 8.46 1.93, 12.67 1.04 C16.88 0.15, 25.53 1.14, 28.58 1.73 C31.62 2.33, 31.28 4.39, 30.93 4.61 M16.2 1.1 C19.98 0.65, 27.01 1.35, 30.19 3.21 C33.36 5.06, 34.61 9.03, 35.24 12.22 C35.86 15.41, 35.26 19.73, 33.93 22.35 C32.59 24.97, 30.62 27.03, 27.23 27.95 C23.84 28.88, 17.4 28.68, 13.58 27.9 C9.75 27.12, 6.7 25.64, 4.28 23.26 C1.85 20.89, -0.93 16.85, -0.96 13.65 C-0.98 10.46, 1.32 6.52, 4.15 4.08 C6.98 1.63, 14.11 -0.35, 16.05 -1.03 C17.99 -1.71, 15.41 -0.3, 15.8 0" stroke="#000000" stroke-width="1" fill="none"></path></g><g stroke-linecap="round" transform="translate(523.3398978684968 355.7955732228246) rotate(0 0.9619804443490807 1.263206644094737)"><path d="M2.08 -0.52 C2.33 -0.17, 1.6 1.12, 1.49 1.5 C1.38 1.87, 1.38 1.48, 1.41 1.71 C1.45 1.94, 1.87 2.88, 1.72 2.9 C1.56 2.93, 0.85 1.85, 0.48 1.88 C0.1 1.9, -0.38 3.04, -0.53 3.05 C-0.68 3.06, -0.55 2.37, -0.42 1.95 C-0.29 1.54, 0.02 0.79, 0.26 0.57 C0.5 0.35, 0.86 0.56, 1.01 0.63 C1.17 0.7, 0.93 1.1, 1.18 0.99 C1.44 0.87, 2.54 0.08, 2.54 -0.05 M2.24 1.06 C2.39 1.06, 2.05 -0.41, 2.2 -0.55 C2.35 -0.7, 2.99 -0.45, 3.13 0.19 C3.26 0.83, 3.36 2.88, 3 3.29 C2.64 3.69, 1.56 2.59, 0.98 2.6 C0.4 2.62, -0.38 3.7, -0.49 3.37 C-0.6 3.03, 0.16 1.25, 0.32 0.59 C0.48 -0.07, 0.46 -0.37, 0.47 -0.61 C0.48 -0.84, 0.46 -0.72, 0.4 -0.82 C0.34 -0.93, 0.04 -1.56, 0.11 -1.21 C0.18 -0.86, 0.79 1.2, 0.84 1.28" stroke="#000000" stroke-width="1" fill="none"></path></g><g stroke-linecap="round" transform="translate(573.9556163999544 360.15849463204563) rotate(0 0.9716974185344043 1.651885611508476)"><path d="M-0.01 -0.23 C0.42 -0.57, 1.73 -0.59, 2.05 -0.39 C2.37 -0.18, 1.84 0.69, 1.92 1 C2 1.32, 2.69 1.33, 2.54 1.51 C2.38 1.69, 1.07 1.85, 0.97 2.08 C0.86 2.31, 1.89 2.72, 1.89 2.88 C1.89 3.04, 1.25 3.13, 0.95 3.03 C0.64 2.92, 0.1 2.69, 0.06 2.27 C0.02 1.84, 0.45 0.71, 0.71 0.47 C0.97 0.23, 1.62 0.95, 1.61 0.83 C1.6 0.71, 0.77 -0.2, 0.63 -0.23 M2.22 0.51 C2.38 0.6, 0.93 1.44, 0.7 1.87 C0.46 2.29, 0.44 2.94, 0.8 3.08 C1.16 3.22, 2.78 2.81, 2.84 2.69 C2.9 2.57, 1.4 2.26, 1.17 2.36 C0.95 2.47, 1.84 3.28, 1.48 3.31 C1.12 3.34, -0.54 2.93, -1 2.52 C-1.46 2.11, -1.39 1.44, -1.3 0.87 C-1.2 0.31, -0.64 -0.7, -0.43 -0.89 C-0.22 -1.09, -0.52 -0.33, -0.05 -0.3 C0.43 -0.26, 2.36 -0.95, 2.42 -0.69" stroke="#000000" stroke-width="1" fill="none"></path></g><g transform="translate(155.04938616071445 260.85751488095246) rotate(0 96 25)"><text x="0" y="18" font-family="Virgil, Segoe UI Emoji" font-size="20px" fill="#343a40" text-anchor="start" style="white-space: pre;" direction="ltr">20. listopada 2021</text><text x="0" y="43" font-family="Virgil, Segoe UI Emoji" font-size="20px" fill="#343a40" text-anchor="start" style="white-space: pre;" direction="ltr">14:00</text></g><g stroke-linecap="round" transform="translate(155.85658482142856 519.2873883928568) rotate(0 13.5 13.5)"><path d="M1.36 1.44 L27.07 0.69 L27.6 25.75 L-0.6 28.72" stroke="none" stroke-width="0" fill="#fff"></path><path d="M-1.83 1.36 C7.72 0.47, 18.14 1.86, 27.3 1.35 M-0.06 -0.23 C9.48 -0.66, 18.27 -1.07, 26.14 0.81 M28.17 1.76 C25.49 8.17, 27.24 16.2, 28.65 28.68 M27.7 -0.52 C26.18 7.73, 26.28 15.34, 27.7 26.73 M27.35 26.9 C18.47 28.78, 9.6 27.97, -0.28 25.47 M27.35 26.21 C19.77 26.47, 11.92 26.12, 0.54 27.42 M0.49 27.94 C-1.5 19.95, -0.65 15.66, 1.98 0.63 M-0.17 26.24 C0.59 17.65, 0.27 10.57, -0.83 0.85" stroke="#495057" stroke-width="1" fill="none"></path></g><g transform="translate(190.60267857142856 522.9892113095234) rotate(0 131.5 10)"><text x="0" y="14" font-family="Virgil, Segoe UI Emoji" font-size="16px" fill="#495057" text-anchor="start" style="white-space: pre;" direction="ltr">Zabawki dla dzieci (jeśli dotyczy)</text></g><g stroke-linecap="round"><g transform="translate(157.856584821429 526.7873883928568) rotate(0 14.472197885758021 3.233215772546828)"><path d="M-0.76 0.26 C2.87 5.14, 4.26 8.52, 9.95 15.61 M-0.02 -0.36 C2.9 5.64, 6.36 13.48, 9.27 15.91 M7.52 15.29 C15.82 6.09, 23.89 1.16, 29.26 -9.48 M8.25 15.94 C15.11 7.43, 23.4 -1.08, 29.7 -8.13" stroke="#495057" stroke-width="1" fill="none"></path></g></g><g stroke-linecap="round" transform="translate(156.56389508928567 553.7907366071424) rotate(0 13.5 13.5)"><path d="M1.91 1.79 L26.29 0.35 L25.32 26.23 L-1.61 26.44" stroke="none" stroke-width="0" fill="#fff"></path><path d="M1.26 -1.73 C7.22 1.3, 16.39 -0.48, 28.66 1.22 M-0.39 0.48 C7.87 -0.87, 13.97 0.92, 26.09 -0.77 M28.11 0.82 C28.19 6.27, 28.08 14.35, 25.91 27.13 M26.45 0.97 C27.19 8.58, 26.2 17.13, 27.39 27.92 M28.57 26.33 C17.51 28.67, 10.35 25.91, -1.52 28.95 M27.78 26.73 C19.62 27.35, 12.13 26.88, 0.57 27.94 M0.63 27.12 C-0.35 16.85, -1.76 8.99, 0.77 0.99 M-0.02 26.37 C0.62 18.8, -0.56 12.34, -0.32 -0.49" stroke="#495057" stroke-width="1" fill="none"></path></g><g transform="translate(191.30998883928567 557.4925595238091) rotate(0 51.5 10)"><text x="0" y="14" font-family="Virgil, Segoe UI Emoji" font-size="16px" fill="#495057" text-anchor="start" style="white-space: pre;" direction="ltr">Dobre humory</text></g><g stroke-linecap="round"><g transform="translate(158.56389508928612 561.2907366071424) rotate(0 14.606884933074582 3.839713079275441)"><path d="M-0.51 1.38 C4.27 5.87, 8.42 13.27, 8.47 16.82 M0.5 -0.79 C2.03 5.65, 4.55 8.93, 8.58 15.49 M10.34 15.41 C16.87 8.28, 21.33 -0.49, 29.72 -9.14 M9.21 16.18 C16.28 6.48, 25.38 -2.61, 29.49 -8.42" stroke="#495057" stroke-width="1" fill="none"></path></g></g><g stroke-linecap="round" transform="translate(155.88448660714278 590.1635044642853) rotate(0 13.5 13.5)"><path d="M-1.1 0.05 L27.62 -0.93 L29 28.97 L-0.2 28.53" stroke="none" stroke-width="0" fill="#fff"></path><path d="M-0.79 -1.4 C9.94 0.54, 14.83 -0.13, 28.71 0.85 M0.29 0.72 C9.09 0.39, 17.37 1.18, 28 -0.97 M28.82 0.68 C28.69 7.56, 25.5 15.84, 28.93 28 M26.71 0.44 C26.57 6.62, 27.98 14.44, 27.8 26.45 M25.55 28.18 C19.6 27.17, 13.57 26.18, -1.12 27.16 M26.1 26.29 C18.94 26.09, 10.48 27.66, 0.92 26.53 M0.48 25.81 C-0.62 16.41, -0.08 6.98, -0.84 -1.91 M-0.21 27.13 C0.45 20.4, 0.8 12.18, 0.55 -0.49" stroke="#495057" stroke-width="1" fill="none"></path></g><g transform="translate(190.63058035714278 593.865327380952) rotate(0 55 10)"><text x="0" y="14" font-family="Virgil, Segoe UI Emoji" font-size="16px" fill="#495057" text-anchor="start" style="white-space: pre;" direction="ltr">Ciepłe ubrania</text></g><g stroke-linecap="round"><g transform="translate(157.88448660714323 597.6635044642853) rotate(0 14.846385486456313 3.783090308881981)"><path d="M1.79 0.46 C1.44 4.45, 6.62 9.93, 9.41 16.65 M0.35 0.11 C1.83 4.03, 4.62 5.54, 8.8 16.09 M10.66 16.04 C14.22 8.23, 24.65 -0.08, 28.98 -7.04 M8.3 15.22 C15.17 8.99, 20.63 2.23, 29.34 -9.08" stroke="#495057" stroke-width="1" fill="none"></path></g></g><g stroke-linecap="round"><g transform="translate(67.1358229390163 367.64440109603083) rotate(0 22.86264810663164 26.69051836456424)" fill-rule="evenodd"><path d="M-0.71 -0.46 L23.12 53.07 L46.48 -1.69 L0.69 -1.25" stroke="none" stroke-width="0" fill="#868e96" fill-rule="evenodd"></path><path d="M-1.05 1.8 C6.73 12.55, 10.45 29.74, 21.2 53.37 M-0.13 0.84 C7.79 19.52, 16.46 41.02, 22.6 55.06 M21.1 53.76 C25.61 44.9, 31.79 32.79, 45.46 1.57 M21.85 55.12 C27.53 41.51, 34.97 26.78, 46.78 -0.57 M46.21 1.03 C31.67 -0.22, 15.6 1.91, -0.22 -1.74 M46.21 0.47 C30.59 0.14, 13.71 0.38, -0.6 -0.45 M0 0 C0 0, 0 0, 0 0 M0 0 C0 0, 0 0, 0 0" stroke="#000000" stroke-width="1" fill="none"></path></g></g><g stroke-linecap="round" transform="translate(68.04491384810729 344.9171283687581) rotate(0 21.66666666666663 21.66666666666663)"><path d="M22.28 -0.42 C26.59 -0.39, 32.71 3.26, 36.11 6.48 C39.51 9.69, 42.09 14.24, 42.69 18.86 C43.28 23.48, 42.28 30.3, 39.7 34.21 C37.12 38.13, 31.76 41.02, 27.19 42.34 C22.61 43.65, 16.46 44, 12.24 42.1 C8.01 40.19, 3.7 35.24, 1.83 30.91 C-0.04 26.58, -0.01 20.54, 1.02 16.11 C2.05 11.69, 3.48 6.91, 8.03 4.35 C12.58 1.78, 24.23 0.99, 28.32 0.73 C32.4 0.47, 32.57 2.48, 32.53 2.77 M16.75 -0.03 C20.93 -1.16, 27.37 0.84, 31.42 3.4 C35.48 5.95, 39.16 11.14, 41.07 15.29 C42.98 19.44, 44.51 24.32, 42.87 28.27 C41.24 32.22, 35.36 36.79, 31.27 38.99 C27.17 41.2, 22.86 42.19, 18.3 41.52 C13.74 40.85, 7.11 38.52, 3.88 34.99 C0.65 31.46, -1.07 25.02, -1.06 20.33 C-1.05 15.63, 0.58 10.33, 3.96 6.8 C7.33 3.26, 16.75 0.18, 19.19 -0.89 C21.63 -1.96, 18.66 -0.19, 18.6 0.38" stroke="none" stroke-width="0" fill="#868e96"></path><path d="M27.21 0.22 C31.6 1.11, 35.69 5.45, 38.31 9.2 C40.93 12.94, 43.07 18, 42.93 22.67 C42.79 27.33, 40.55 33.86, 37.47 37.19 C34.38 40.52, 28.9 42.03, 24.42 42.65 C19.95 43.26, 14.4 43.2, 10.62 40.87 C6.85 38.54, 3.42 33.36, 1.77 28.64 C0.12 23.93, -0.81 17, 0.71 12.57 C2.23 8.14, 6.06 4.02, 10.91 2.06 C15.75 0.11, 25.9 0.6, 29.76 0.86 C33.61 1.12, 34.07 3.25, 34.03 3.6 M30.65 2.39 C34.96 3.97, 40.28 7.71, 42.45 12.03 C44.62 16.35, 45.14 23.76, 43.68 28.34 C42.23 32.92, 37.89 37.01, 33.72 39.52 C29.55 42.04, 23.34 43.8, 18.67 43.44 C14.01 43.08, 8.95 40.63, 5.75 37.37 C2.55 34.1, -0.26 28.67, -0.54 23.85 C-0.82 19.03, 1.36 12.11, 4.06 8.45 C6.75 4.78, 11.07 3.1, 15.61 1.87 C20.15 0.63, 28.55 0.84, 31.3 1.04 C34.05 1.23, 32.14 2.69, 32.12 3.04" stroke="#000000" stroke-width="1" fill="none"></path></g><g stroke-linecap="round" transform="translate(83.1964289996223 359.76561321724284) rotate(0 5.757575757575751 5.909090909090878)"><path d="M6.07 -0.34 C7.31 -0.24, 9.75 0.45, 10.62 1.44 C11.48 2.42, 11.2 4.35, 11.26 5.58 C11.33 6.8, 11.72 7.92, 10.99 8.79 C10.26 9.66, 8.14 10.48, 6.91 10.79 C5.68 11.1, 4.77 11.01, 3.6 10.65 C2.43 10.28, 0.56 9.8, -0.09 8.6 C-0.75 7.4, -0.79 4.66, -0.33 3.45 C0.14 2.24, 1.44 1.83, 2.71 1.33 C3.99 0.82, 6.46 0.4, 7.31 0.44 C8.17 0.48, 7.9 1.56, 7.81 1.57 M4.73 -1 C5.81 -1.18, 8.18 -0.97, 9.45 0.04 C10.72 1.05, 12.21 3.9, 12.35 5.06 C12.49 6.22, 11.18 5.91, 10.28 6.99 C9.37 8.08, 8.14 10.97, 6.92 11.55 C5.69 12.12, 4 10.97, 2.93 10.44 C1.86 9.91, 1.21 9.36, 0.49 8.37 C-0.22 7.37, -1.39 5.33, -1.37 4.47 C-1.35 3.6, -0.27 3.8, 0.6 3.17 C1.48 2.54, 3.18 1.1, 3.87 0.7 C4.56 0.29, 4.5 0.53, 4.74 0.75" stroke="none" stroke-width="0" fill="white"></path><path d="M3.43 -0.21 C4.7 -0.9, 7.13 -0.54, 8.35 -0.04 C9.56 0.46, 10.06 1.62, 10.71 2.77 C11.37 3.92, 12.56 5.49, 12.28 6.87 C11.99 8.24, 9.91 10.09, 8.99 11.05 C8.08 12, 7.84 12.86, 6.78 12.6 C5.71 12.35, 3.85 10.58, 2.62 9.51 C1.38 8.44, -0.28 7.33, -0.65 6.18 C-1.02 5.03, -0.44 3.52, 0.39 2.61 C1.21 1.7, 3.31 1.07, 4.28 0.7 C5.26 0.32, 6.22 0.24, 6.25 0.38 M4.55 1 C5.5 1.01, 6.12 1.47, 7.27 1.94 C8.42 2.41, 10.84 2.96, 11.45 3.85 C12.07 4.73, 11.35 6.11, 10.97 7.27 C10.58 8.42, 9.98 10.12, 9.13 10.78 C8.29 11.43, 7.01 11.39, 5.91 11.2 C4.81 11.01, 3.55 10.66, 2.53 9.64 C1.51 8.61, -0.2 6.3, -0.21 5.05 C-0.22 3.81, 1.91 2.84, 2.48 2.17 C3.05 1.49, 2.8 1.2, 3.19 1 C3.58 0.8, 4.78 0.83, 4.83 0.98" stroke="#000000" stroke-width="1" fill="none"></path></g><g stroke-linecap="round"><g transform="translate(73.12785678375178 377.4815239852212) rotate(0 15.60594281289923 8.264672014432335)" fill-rule="evenodd"><path d="M0.79 0.13 L8.18 17.16 L23.8 18.22 L32.18 -3.69 L-0.57 0.13" stroke="none" stroke-width="0" fill="#868e96" fill-rule="evenodd"></path><path d="M-1.26 -0.92 C3.12 3.48, 2.26 9.24, 5.69 16.34 M-0.45 0.57 C2.8 5.37, 4.23 8.53, 5.69 15.63 M7.6 15.69 C11.63 15.7, 17.94 16.91, 24.86 17.67 M7.15 16.58 C12.15 17.01, 17.41 18.07, 24.9 19.24 M24.67 17.18 C28.37 13.01, 26.7 8.89, 32.28 -1.26 M25.08 18.96 C26.59 13.38, 27.44 8.91, 32.47 -2.71 M30.4 -2.36 C21.28 -0.1, 13.26 -1.32, 0.78 -0.28 M31.68 -2.06 C23.83 -0.56, 16.37 -0.97, -0.34 1.57 M-0.08 0.86 C-0.02 0.76, -0.11 0.43, -0.09 0.02 M-0.15 0.88 C-0.12 0.71, -0.02 0.51, 0.02 -0.01" stroke="#868e96" stroke-width="1" fill="none"></path></g></g><g stroke-linecap="round" transform="translate(152.8371465773813 442.05803571428555) rotate(0 157.79633246527777 18)"><path d="M1.57 -1.76 L314.89 1.46 L314.87 35.2 L1.52 34.87" stroke="none" stroke-width="0" fill="#fff"></path><path d="M0.57 0.71 C111.99 -0.85, 222.25 -1.71, 315.36 1.09 M-0.31 0.4 C112.28 -2.46, 223.8 -1.55, 316.01 -0.59 M314.11 -1.28 C317.38 11.89, 315.34 21.8, 316.54 35.27 M314.91 0.31 C314.65 13.29, 315.16 25.51, 315.32 35.59 M315.35 35.52 C231.29 35.92, 148.31 36.09, -0.42 34.65 M314.94 35.54 C250.53 37.73, 185.06 38.86, 0.67 36.37 M1.23 36.9 C-0.38 27.71, -0.44 16.96, 0.6 -0.02 M-0.29 35.93 C-0.14 23.17, -0.41 9.44, 0.73 0.86" stroke="#495057" stroke-width="1" fill="none"></path></g><g transform="translate(172.0422247023812 448.3497023809523) rotate(0 27 12.5)"><text x="27" y="18" font-family="Virgil, Segoe UI Emoji" font-size="20px" fill="#495057" text-anchor="middle" style="white-space: pre;" direction="ltr">Obiad</text></g><g stroke-linecap="round"><g transform="translate(240.33063616071456 449.3497023809523) rotate(0 7.231565072092849 10.120178587289843)"><path d="M1.73 -0.15 C5.86 2.38, 8.73 8.59, 14.45 9.56 M0.57 -0.33 C5.53 5.08, 11.22 7.96, 13.5 11.69 M14.74 11.91 C8.81 14.03, 5.86 16.19, 1.08 19.36 M12.92 11.12 C8.04 14.09, 2.71 18.09, -0.28 20.57" stroke="#495057" stroke-width="2" fill="none"></path></g></g><g transform="translate(276.8916170634924 447.3865947420634) rotate(0 28.5 12.5)"><text x="28.5" y="18" font-family="Virgil, Segoe UI Emoji" font-size="20px" fill="#495057" text-anchor="middle" style="white-space: pre;" direction="ltr">Deser</text></g><g stroke-linecap="round"><g transform="translate(353.0344122023812 447.5953621031746) rotate(0 7.060786055632093 10.895173699658244)"><path d="M-0.17 0.07 C4.53 2.18, 6.46 4.57, 12.47 12.03 M-0.54 0.64 C4.13 2.66, 7.98 6.62, 13.95 11.59 M15.15 9.52 C9.1 14.75, 3.27 18.84, -1.02 21.72 M13.3 11.76 C9.7 13.8, 6.54 16.07, 0.64 20.12" stroke="#495057" stroke-width="2" fill="none"></path></g></g><g transform="translate(384.81436011904793 446.96992807539664) rotate(0 35 12.5)"><text x="35" y="18" font-family="Virgil, Segoe UI Emoji" font-size="20px" fill="#495057" text-anchor="middle" style="white-space: pre;" direction="ltr">Ognisko</text></g><g stroke-linecap="round" transform="translate(53.71588002389285 436.93834233746543) rotate(0 36.89473684210532 36.89473684210532)"><path d="M38.16 0.73 C45.18 0.32, 54.2 3.62, 60.08 8.07 C65.96 12.53, 71.5 20.28, 73.44 27.45 C75.37 34.61, 74.67 44.27, 71.69 51.04 C68.72 57.81, 62.13 64.22, 55.58 68.06 C49.03 71.9, 39.82 74.86, 32.4 74.07 C24.98 73.27, 16.49 68.48, 11.07 63.28 C5.64 58.09, 0.95 50.3, -0.14 42.88 C-1.24 35.46, 0.82 25.31, 4.49 18.75 C8.16 12.18, 15.62 6.68, 21.87 3.5 C28.12 0.31, 37.6 -0.08, 41.98 -0.35 C46.36 -0.63, 48.11 1.05, 48.14 1.85 M42.05 1.42 C49.04 1.59, 57.04 5.84, 62.15 10.84 C67.25 15.84, 71.24 24.2, 72.68 31.43 C74.12 38.65, 74.29 47.7, 70.79 54.19 C67.29 60.67, 58.78 67.45, 51.67 70.35 C44.56 73.24, 35.25 73.12, 28.12 71.54 C21 69.95, 13.58 66, 8.9 60.82 C4.22 55.64, 0.41 48.05, 0.04 40.48 C-0.34 32.91, 2.54 22.01, 6.64 15.39 C10.73 8.78, 19.12 3.14, 24.59 0.79 C30.06 -1.55, 36.6 1.3, 39.44 1.34 C42.28 1.37, 41.52 0.51, 41.61 1.01" stroke="none" stroke-width="0" fill="#868e96"></path><path d="M20.67 4.16 C26.9 0.18, 36.55 -1.5, 43.58 -0.32 C50.61 0.85, 57.84 5.58, 62.87 11.21 C67.89 16.84, 72.83 25.93, 73.73 33.46 C74.64 40.99, 72.12 50.27, 68.3 56.41 C64.49 62.55, 57.81 67.56, 50.83 70.28 C43.86 73, 33.62 74.64, 26.43 72.74 C19.24 70.84, 12.03 64.86, 7.67 58.88 C3.31 52.89, 0.31 44.13, 0.3 36.84 C0.28 29.55, 3.51 20.78, 7.56 15.15 C11.6 9.51, 20.71 5.21, 24.57 3.04 C28.43 0.88, 30.62 1.77, 30.71 2.13 M44.57 -0.03 C51.59 1.08, 59.86 7.54, 64.56 13.08 C69.27 18.63, 72.05 25.96, 72.8 33.24 C73.56 40.52, 72.95 50.57, 69.08 56.77 C65.22 62.96, 56.75 67.79, 49.61 70.4 C42.47 73, 33.24 74.24, 26.26 72.4 C19.27 70.57, 11.96 65.16, 7.71 59.37 C3.45 53.57, 0.49 45.12, 0.73 37.64 C0.98 30.16, 4.48 20.32, 9.2 14.49 C13.91 8.67, 23.13 4.75, 29.03 2.7 C34.93 0.64, 42 2.62, 44.59 2.16 C47.18 1.69, 44.91 -0.52, 44.58 -0.1" stroke="#000000" stroke-width="1" fill="none"></path></g><g stroke-linecap="round" transform="translate(76.16426820081256 481.8955785453941) rotate(89.99999999999994 15.908054549328881 3.8587612756587646)"><path d="M1.03 -1.34 L31.39 -1.93 L30.11 1.98 L33.65 5.65 L31.12 6.07 L0.24 7.03 L0.32 6.92 L-0.48 3.03 L2.27 -1.69" stroke="none" stroke-width="0" fill="white"></path><path d="M1.93 0 M1.93 0 C7.11 0.59, 13.73 0.49, 29.89 0 M1.93 0 C11.85 0.47, 19.56 -0.62, 29.89 0 M29.89 0 C31.94 0.27, 30.88 1.56, 31.82 1.93 M29.89 0 C30.1 0.33, 33.1 -0.67, 31.82 1.93 M31.82 1.93 C31.8 2.66, 31.83 3.99, 31.82 5.79 M31.82 1.93 C32.01 3.41, 31.88 4.75, 31.82 5.79 M31.82 5.79 C33.8 8.01, 33.16 8.83, 29.89 7.72 M31.82 5.79 C29.52 6.18, 31.68 8.86, 29.89 7.72 M29.89 7.72 C22.74 9.33, 15.34 8.84, 1.93 7.72 M29.89 7.72 C21.48 7.84, 11.69 7.1, 1.93 7.72 M1.93 7.72 C0.18 8.77, -0.6 6.58, 0 5.79 M1.93 7.72 C-0.74 8.13, 0.33 5.3, 0 5.79 M0 5.79 C-0.31 4.83, -0.15 3.22, 0 1.93 M0 5.79 C0.17 4.62, 0.15 3.14, 0 1.93 M0 1.93 C1.05 -0.16, 1.5 1.61, 1.93 0 M0 1.93 C0.28 -0.8, 0.75 -1.75, 1.93 0" stroke="#000000" stroke-width="1" fill="none"></path></g><g stroke-linecap="round" transform="translate(86.37131415578074 453.2660594034096) rotate(89.99999999999994 4.9541515732652215 3.6098089352936427)"><path d="M0.47 1.5 L7.52 -0.77 L10.96 8.6 L0.32 8 L-1.65 0.12 L1.12 0.32" stroke="none" stroke-width="0" fill="white"></path><path d="M1.8 0 M1.8 0 C4.16 -0.57, 5.81 0.12, 8.1 0 M1.8 0 C3.59 0.06, 5.68 -0.05, 8.1 0 M8.1 0 C11.24 1.4, 11.38 -1.05, 9.91 1.8 M8.1 0 C8.5 0.88, 10.22 -0.48, 9.91 1.8 M9.91 1.8 C10.09 2.85, 9.75 4.55, 9.91 5.41 M9.91 1.8 C9.9 2.94, 9.98 4.11, 9.91 5.41 M9.91 5.41 C10.88 8.47, 11.06 7.74, 8.1 7.22 M9.91 5.41 C12.2 8.9, 10.38 9.5, 8.1 7.22 M8.1 7.22 C6 7.51, 3.54 7.21, 1.8 7.22 M8.1 7.22 C5.99 7.41, 3.5 7.54, 1.8 7.22 M1.8 7.22 C0.59 8.56, 0.25 6.52, 0 5.41 M1.8 7.22 C-0.81 6.69, 1.21 5.93, 0 5.41 M0 5.41 C0.07 4.14, 0.17 3.47, 0 1.8 M0 5.41 C-0.04 4.55, 0.1 3.65, 0 1.8 M0 1.8 C0.55 2.43, 2.19 1.6, 1.8 0 M0 1.8 C-0.1 1.8, -0.32 0.98, 1.8 0" stroke="#000000" stroke-width="1" fill="none"></path></g><g transform="translate(154.2609437003972 488.67043395915675) rotate(0 42.5 10)"><text x="0" y="14" font-family="Virgil, Segoe UI Emoji" font-size="16px" fill="#495057" text-anchor="start" style="white-space: pre;" direction="ltr">Co zabrać:</text></g></svg>